<svg width="272" height="35" viewBox="0 0 272 35" fill="none" xmlns="http://www.w3.org/2000/svg"><path d="M2.19 5.65a12.52 12.52 0 0 1 6.1-4.06A28.96 28.96 0 0 1 17.43.3c3.18-.07 6.35.35 9.38 1.25 2.36.68 4.45 2.03 6 3.86a10.18 10.18 0 0 1 2.12 6.6v.94H32.1v-1.21a8.36 8.36 0 0 0-1.66-5.44 9.3 9.3 0 0 0-4.91-2.91 31.3 31.3 0 0 0-8.06-.9c-2.47-.02-4.92.29-7.3.92a11.25 11.25 0 0 0-5.3 3.04 8.2 8.2 0 0 0-2 5.84v1.29c-.07 1.4.23 2.78.87 4.04a8.37 8.37 0 0 0 2.8 3.14c2.46 1.67 6.1 2.5 10.92 2.5 2.08.02 4.16-.13 6.22-.44 1.75-.25 3.43-.78 4.99-1.56a7.66 7.66 0 0 0 3.18-3.05h2.85a9.48 9.48 0 0 1-3.95 4.47 18.46 18.46 0 0 1-6.13 2.18c-2.37.41-4.78.62-7.19.62-3.1.05-6.19-.39-9.14-1.29a13.11 13.11 0 0 1-4.77-3.1c-1.33-1.37-2.32-3-2.9-4.78A11.98 11.98 0 0 1 2.17 5.64v.01Zm31.73 5.07v2.23H2.4v-2.23h31.53ZM70.57 11.83 85.3.76h3.72L72.37 13.22l-.56.2-15.46 11.56h-3.72l17.17-12.8.77-.35Zm-.77 1.53L52.99.76h4.08l14.69 11.02.61.25L89.6 24.98h-4.08L70.36 13.57l-.56-.2ZM97.14.76v7.21l.2.16v26.74H94.5V.76h2.64Zm2.94 2.42C102.94 1.24 107.25.26 113 .26c3.4-.07 6.78.36 10.04 1.3a11.3 11.3 0 0 1 6.41 4.16 10.44 10.44 0 0 1 2.08 7.15c.15 2.6-.6 5.2-2.13 7.36a12.17 12.17 0 0 1-6.3 4.06c-3.26.89-6.64 1.3-10.04 1.24-5.75 0-10.05-.96-12.92-2.87-2.86-1.92-4.28-5.16-4.24-9.74-.05-4.55 1.34-7.8 4.17-9.74Zm28.64 9.4a8.85 8.85 0 0 0-1.79-5.74 10.42 10.42 0 0 0-5.3-3.29c-2.8-.76-5.71-1.1-8.62-1.01-2.96-.08-5.91.3-8.75 1.11A10.21 10.21 0 0 0 99.06 7a9 9 0 0 0-1.7 5.63v.65a9 9 0 0 0 1.7 5.63 10.04 10.04 0 0 0 5.2 3.31c2.84.8 5.8 1.17 8.75 1.1 2.91.07 5.81-.27 8.62-1.02a10.3 10.3 0 0 0 5.3-3.23 8.8 8.8 0 0 0 1.8-5.76v-.73ZM141.59.76v8.63l-.88.25a8.08 8.08 0 0 1 1.5-5.08 8.54 8.54 0 0 1 4.09-2.87c1.87-.63 3.84-.94 5.83-.91h7.43V3h-7.43c-2.7-.15-5.37.54-7.62 1.96-1.84 1.3-2.77 3.55-2.77 6.75V25h-2.84V.75h2.69ZM163.1 5.65a12.52 12.52 0 0 1 6.1-4.06 28.96 28.96 0 0 1 9.14-1.3c3.17-.07 6.34.35 9.38 1.25a12.4 12.4 0 0 1 6 3.86 10.23 10.23 0 0 1 2.13 6.6v.94H193v-1.21a8.36 8.36 0 0 0-1.65-5.44 9.3 9.3 0 0 0-4.92-2.91 31.25 31.25 0 0 0-8.06-.9c-2.46-.02-4.92.29-7.29.92a11.25 11.25 0 0 0-5.3 3.04 8.2 8.2 0 0 0-2 5.84v1.29c-.07 1.4.23 2.78.87 4.04a8.4 8.4 0 0 0 2.8 3.14c2.45 1.67 6.09 2.5 10.91 2.5 2.08.02 4.17-.13 6.23-.44 1.74-.25 3.43-.78 4.98-1.56a7.6 7.6 0 0 0 3.19-3.05h2.8a9.48 9.48 0 0 1-3.95 4.47 18.46 18.46 0 0 1-6.13 2.18c-2.37.41-4.77.62-7.18.62-3.1.05-6.2-.39-9.15-1.29a13.11 13.11 0 0 1-4.77-3.1 12.4 12.4 0 0 1-2.9-4.78 11.98 11.98 0 0 1 1.57-10.66l.04.01Zm31.73 5.07v2.23H163.3v-2.23h31.53ZM203.36 17.56a5.66 5.66 0 0 0 1.48 2.76c.75.77 1.7 1.33 2.76 1.62 3.15.8 6.41 1.13 9.67 1.01 4.75 0 8.24-.4 10.5-1.2 2.24-.8 3.34-2.04 3.34-3.8.03-.5-.07-1-.29-1.46a3.16 3.16 0 0 0-.97-1.18 8.16 8.16 0 0 0-3.42-1.28c-1.58-.26-3.2-.4-4.8-.42h-5.53c-1.91 0-3.76-.06-5.53-.19a22.7 22.7 0 0 1-4.8-.78c-1.3-.34-2.48-1-3.42-1.9a4.81 4.81 0 0 1-1.26-3.57 4.97 4.97 0 0 1 1.9-3.86 12.15 12.15 0 0 1 5.43-2.43c2.97-.6 6-.86 9.04-.81 2.89-.06 5.77.2 8.6.76 1.88.35 3.63 1.14 5.1 2.3A6.44 6.44 0 0 1 233.28 7h-2.85a3.8 3.8 0 0 0-.7-1.66c-.37-.5-.86-.9-1.42-1.18a13.9 13.9 0 0 0-4.7-1.44 43.8 43.8 0 0 0-6.18-.42c-3.31-.1-6.62.3-9.8 1.19-2.42.79-3.64 2.04-3.64 3.75-.03.5.07.98.29 1.42.22.45.56.83.98 1.11a8.74 8.74 0 0 0 3.41 1.19c1.6.23 3.2.37 4.8.4h5.5c1.9 0 3.74.06 5.51.2 1.63.1 3.25.38 4.8.84a7.58 7.58 0 0 1 3.43 1.98c.89 1 1.34 2.29 1.26 3.6a5.57 5.57 0 0 1-1.1 3.47 6 6 0 0 1-3.04 2.16c-2.76 1.1-6.93 1.66-12.51 1.66-2.98.05-5.96-.18-8.9-.7-1.99-.3-3.86-1.1-5.42-2.34a7.87 7.87 0 0 1-2.49-4.63l2.85-.03ZM241.35 17.56a5.65 5.65 0 0 0 1.48 2.76c.75.77 1.7 1.33 2.77 1.62 3.15.79 6.4 1.13 9.66 1.01 4.77 0 8.26-.4 10.5-1.2 2.24-.8 3.36-2.04 3.36-3.8a3.17 3.17 0 0 0-1.26-2.65 8.16 8.16 0 0 0-3.42-1.27 32 32 0 0 0-4.8-.42h-5.53a81.3 81.3 0 0 1-5.54-.19 22.93 22.93 0 0 1-4.8-.78 7.73 7.73 0 0 1-3.42-1.9 4.82 4.82 0 0 1-1.27-3.57 4.96 4.96 0 0 1 1.82-3.92 12.15 12.15 0 0 1 5.42-2.43c2.97-.6 6-.86 9.05-.81 2.89-.06 5.77.2 8.6.76 1.88.35 3.63 1.14 5.1 2.3a6.5 6.5 0 0 1 2.12 3.86h-2.84a4.05 4.05 0 0 0-2.12-2.84 14.05 14.05 0 0 0-4.72-1.44c-2.04-.29-4.1-.43-6.17-.42-3.31-.1-6.62.3-9.8 1.19-2.42.79-3.64 2.04-3.65 3.75a2.9 2.9 0 0 0 1.27 2.53 8.66 8.66 0 0 0 3.41 1.19c1.6.23 3.2.37 4.8.4h5.52c1.88 0 3.73.06 5.5.2 1.63.1 3.25.39 4.8.84a7.58 7.58 0 0 1 3.43 1.98c.88 1 1.33 2.29 1.26 3.6a5.56 5.56 0 0 1-1.1 3.46 5.98 5.98 0 0 1-3.04 2.15c-2.76 1.1-6.93 1.65-12.5 1.65-2.99.06-5.97-.17-8.9-.69-2-.3-3.87-1.1-5.42-2.34a7.87 7.87 0 0 1-2.48-4.63l2.91.05ZM58.24 12.77 41.42 25.13h-3.7l16.35-12.21-16-12h4.09l16.08 11.85Z" fill="#fff"/></svg>